<?xml version="1.0" encoding="UTF-8" standalone="no"?>
<svg width="23px" height="24px" viewBox="0 0 23 24" version="1.1" xmlns="http://www.w3.org/2000/svg" xmlns:xlink="http://www.w3.org/1999/xlink" xmlns:sketch="http://www.bohemiancoding.com/sketch/ns">
    <!-- Generator: Sketch 3.3.2 (12043) - http://www.bohemiancoding.com/sketch -->
    <title>Fill 67</title>
    <desc>Created with Sketch.</desc>
    <defs></defs>
    <g id="Pages" stroke="none" stroke-width="1" fill="none" fill-rule="evenodd" sketch:type="MSPage">
        <g id="Artboard-7" sketch:type="MSArtboardGroup" transform="translate(-1.000000, 0.000000)" fill="#4C4C4C">
            <path d="M3.4,19.2 L5.8,14.4 L5.8,8 C5.8,4.4656 8.6656,1.6 12.2,1.6 C15.7344,1.6 18.6,4.4656 18.6,8 L18.6,14.4 L21,19.2 L3.4,19.2 L3.4,19.2 Z M12.2,22.4 C11.156,22.4 10.2776,21.7304 9.9472,20.8 L14.4528,20.8 C14.1224,21.7304 13.244,22.4 12.2,22.4 L12.2,22.4 Z M20.2,14.4 L20.2,8 C20.2,3.5824 16.6176,0 12.2,0 C7.7824,0 4.2,3.5824 4.2,8 L4.2,14.4 L1,20.8 L8.2808,20.8 C8.6512,22.6256 10.2648,24 12.2,24 C14.1352,24 15.7488,22.6256 16.1192,20.8 L23.4,20.8 L20.2,14.4 L20.2,14.4 Z" id="Fill-67" sketch:type="MSShapeGroup"></path>
        </g>
    </g>
</svg>