<?xml version="1.0" encoding="UTF-8" standalone="no"?>
<svg width="24px" height="24px" viewBox="0 0 24 24" version="1.1" xmlns="http://www.w3.org/2000/svg" xmlns:xlink="http://www.w3.org/1999/xlink" xmlns:sketch="http://www.bohemiancoding.com/sketch/ns">
    <!-- Generator: Sketch 3.3.2 (12043) - http://www.bohemiancoding.com/sketch -->
    <title>Fill 192 Copy + Fill 193</title>
    <desc>Created with Sketch.</desc>
    <defs></defs>
    <g id="Pages" stroke="none" stroke-width="1" fill="none" fill-rule="evenodd" sketch:type="MSPage">
        <g id="Artboard-7" sketch:type="MSArtboardGroup" fill="#4C4C4C">
            <g id="Fill-192-Copy-+-Fill-193" sketch:type="MSLayerGroup">
                <path d="M9.99931538,22.4444523 L13.3487364,22.4444523 C13.4179414,21.8063994 13.6200401,21.1783946 13.9445011,20.6157023 C14.7714506,19.1838514 16.3185331,18.2895726 17.9819602,18.2895726 C18.6308823,18.2895726 19.2742881,18.4252216 19.8685483,18.6864716 L21.5430081,15.7825774 C21.0219647,15.4007505 20.5826635,14.9134188 20.2571995,14.3507265 C19.0576464,12.2707746 19.654414,9.6281304 21.5600586,8.23647178 L19.8866018,5.3325776 C19.293846,5.59885163 18.6479328,5.73952471 17.9939958,5.73952471 C15.5928837,5.73952471 13.6105118,3.90072666 13.3607721,1.54445267 L10.0168674,1.54445267 C9.95067129,2.19757766 9.74706822,2.83060649 9.41809379,3.39832283 C8.59214731,4.83017376 7.04506481,5.72445259 5.38113622,5.72445259 C4.72820221,5.72445259 4.08128603,5.58377952 3.48351542,5.32252952 L1.81005859,8.2264237 C2.33711976,8.60825062 2.78043287,9.09558234 3.10639839,9.66329867 C4.30093664,11.7382265 3.70918385,14.3758467 1.81156305,15.7725293 L3.48602284,18.6764235 C4.0752682,18.4151735 4.71716953,18.2745004 5.36910057,18.2745004 C7.75817707,18.2745004 9.73954594,20.1032504 9.99931538,22.4444523 L9.99931538,22.4444523 Z M14.4365217,23.8956522 L8.92330435,23.8956522 L8.92069565,23.3791304 C8.91130435,21.2765217 7.20469565,19.5652174 5.11721739,19.5652174 C4.44730435,19.5652174 3.78991304,19.7426087 3.21704348,20.0765217 L2.76417391,20.3426087 L0.00626086957,15.5686957 L0.455478261,15.3026087 C2.27373913,14.2434783 2.90347826,11.9113043 1.85895652,10.1008696 C1.52452174,9.52173913 1.03982609,9.04173913 0.456521739,8.70782609 L0,8.44695652 L2.76,3.66782609 L3.21130435,3.92869565 C3.79617391,4.26782609 4.45930435,4.44521739 5.12973913,4.44521739 C6.48886957,4.44521739 7.75252174,3.72 8.4266087,2.55130435 C8.76365217,1.96695652 8.93895652,1.30434783 8.93426087,0.631304348 L8.93008696,0.104347826 L14.4474783,0.104347826 L14.4474783,0.626086957 C14.4474783,2.73913043 16.1546087,4.46086957 18.252,4.46086957 C18.9229565,4.46086957 19.5834783,4.27826087 20.1610435,3.93913043 L20.613913,3.67304348 L23.3728696,8.45217391 L22.922087,8.71304348 C21.0954783,9.77217391 20.462087,12.1095652 21.5102609,13.9252174 C21.8452174,14.5043478 22.3267826,14.9843478 22.9027826,15.3130435 L23.3577391,15.573913 L20.6003478,20.3478261 L20.1490435,20.0921739 C19.5662609,19.7582609 18.9057391,19.5808696 18.2394783,19.5808696 C16.8803478,19.5808696 15.6172174,20.306087 14.9426087,21.4747826 C14.6097391,22.053913 14.433913,22.7113043 14.4354783,23.373913 L14.4365217,23.8956522 L14.4365217,23.8956522 Z" id="Fill-192-Copy" sketch:type="MSShapeGroup"></path>
                <path d="M11.6449757,8.7344532 C9.69005308,8.7344532 8.09997559,10.3227836 8.09997559,12.2773241 C8.09997559,14.2318647 9.69005308,15.8244534 11.6449757,15.8244534 C13.5998982,15.8244534 15.1899757,14.2318647 15.1899757,12.2773241 C15.1899757,10.3227836 13.5998982,8.7344532 11.6449757,8.7344532 L11.6449757,8.7344532 Z M11.6488696,17.1391304 C8.96556522,17.1391304 6.7826087,14.9530435 6.7826087,12.2713043 C6.7826087,9.58956522 8.96556522,7.40869565 11.6488696,7.40869565 C14.3321739,7.40869565 16.5151304,9.58956522 16.5151304,12.2713043 C16.5151304,14.9530435 14.3321739,17.1391304 11.6488696,17.1391304 L11.6488696,17.1391304 Z" id="Fill-193" sketch:type="MSShapeGroup"></path>
            </g>
        </g>
    </g>
</svg>