<?xml version="1.0" encoding="UTF-8" standalone="no"?>
<svg width="24px" height="24px" viewBox="0 0 24 24" version="1.1" xmlns="http://www.w3.org/2000/svg" xmlns:xlink="http://www.w3.org/1999/xlink" xmlns:sketch="http://www.bohemiancoding.com/sketch/ns">
    <!-- Generator: Sketch 3.3.2 (12043) - http://www.bohemiancoding.com/sketch -->
    <title>Artboard 7</title>
    <desc>Created with Sketch.</desc>
    <defs></defs>
    <g id="Pages" stroke="none" stroke-width="1" fill="none" fill-rule="evenodd" sketch:type="MSPage">
        <g id="Artboard-7" sketch:type="MSArtboardGroup" fill="#4C4C4C">
            <path d="M8.5856,7.76144069 L11.2,4.59344069 L11.2,15.9998407 C11.2,16.4430407 11.5576,16.8014407 12,16.8014407 C12.4424,16.8014407 12.8,16.4430407 12.8,15.9998407 L12.8,4.56304069 L15.4392,7.76144069 C15.752,8.07744069 16.2608,8.07744069 16.5752,7.76144069 C16.888,7.44704069 16.888,6.93584069 16.5752,6.62064069 L12.6208,1.82784069 C12.4528,1.65984069 12.2312,1.58784069 12.0128,1.59984069 C11.7936,1.58784069 11.572,1.65984069 11.4048,1.82784069 L7.4504,6.62064069 C7.1368,6.93584069 7.1368,7.44704069 7.4504,7.76144069 C7.764,8.07744069 8.2728,8.07744069 8.5856,7.76144069 L8.5856,7.76144069 Z M23.2,14.4014407 C22.7576,14.4014407 22.4,14.7598407 22.4,15.2014407 L22.4,20.8014407 L1.6,20.8014407 L1.6,15.2014407 C1.6,14.7598407 1.2424,14.4014407 0.8,14.4014407 C0.3576,14.4014407 -2.66453526e-14,14.7598407 -2.66453526e-14,15.2014407 L-2.66453526e-14,21.6014407 C-2.66453526e-14,22.0438407 0.3576,22.4014407 0.8,22.4014407 L23.2,22.4014407 C23.6424,22.4014407 24,22.0438407 24,21.6014407 L24,15.2014407 C24,14.7598407 23.6424,14.4014407 23.2,14.4014407 L23.2,14.4014407 Z" id="Fill-103" sketch:type="MSShapeGroup" transform="translate(12.000000, 12.000000) rotate(-270.000000) translate(-12.000000, -12.000000) "></path>
        </g>
    </g>
</svg>