<?xml version="1.0" encoding="UTF-8" standalone="no"?>
<svg width="24px" height="24px" viewBox="0 0 24 24" version="1.1" xmlns="http://www.w3.org/2000/svg" xmlns:xlink="http://www.w3.org/1999/xlink" xmlns:sketch="http://www.bohemiancoding.com/sketch/ns">
    <!-- Generator: Sketch 3.3.2 (12043) - http://www.bohemiancoding.com/sketch -->
    <title>Artboard 7</title>
    <desc>Created with Sketch.</desc>
    <defs></defs>
    <g id="Pages" stroke="none" stroke-width="1" fill="none" fill-rule="evenodd" sketch:type="MSPage">
        <g id="Artboard-7" sketch:type="MSArtboardGroup" fill="#4C4C4C">
            <path d="M21,11 L3,11 C2.448,11 2,11.448 2,12 C2,12.553 2.448,13 3,13 L21,13 C21.552,13 22,12.553 22,12 C22,11.448 21.552,11 21,11 L21,11 Z M21,19 L3,19 C2.448,19 2,19.448 2,20 C2,20.553 2.448,21 3,21 L21,21 C21.552,21 22,20.553 22,20 C22,19.448 21.552,19 21,19 L21,19 Z M3,5 L21,5 C21.552,5 22,4.553 22,4 C22,3.448 21.552,3 21,3 L3,3 C2.448,3 2,3.448 2,4 C2,4.553 2.448,5 3,5 L3,5 Z" id="Fill-70" sketch:type="MSShapeGroup"></path>
        </g>
    </g>
</svg>