<?xml version="1.0" encoding="UTF-8" standalone="no"?>
<svg width="24px" height="24px" viewBox="0 0 24 24" version="1.1" xmlns="http://www.w3.org/2000/svg" xmlns:xlink="http://www.w3.org/1999/xlink" xmlns:sketch="http://www.bohemiancoding.com/sketch/ns">
    <!-- Generator: Sketch 3.3.2 (12043) - http://www.bohemiancoding.com/sketch -->
    <title>Fill 192</title>
    <desc>Created with Sketch.</desc>
    <defs></defs>
    <g id="Pages" stroke="none" stroke-width="1" fill="none" fill-rule="evenodd" sketch:type="MSPage">
        <g id="Artboard-7" sketch:type="MSArtboardGroup" fill="#4C4C4C">
            <path d="M12,19.5 C11.124,19.5 10.278,19.398 9.465,19.22475 L5.934,21.34725 L5.98125,17.868 C3.2745,16.2405 1.5,13.5495 1.5,10.5 C1.5,5.52975 6.201,1.5 12,1.5 C17.799,1.5 22.5,5.52975 22.5,10.5 C22.5,15.471 17.799,19.5 12,19.5 L12,19.5 Z M12,0 C5.373,0 0,4.70175 0,10.5 C0,13.81425 1.75875,16.7655 4.5,18.68925 L4.5,24 L9.75675,20.81025 C10.48425,20.93025 11.23275,21 12,21 C18.627,21 24,16.299 24,10.5 C24,4.70175 18.627,0 12,0 L12,0 Z" id="Fill-192" sketch:type="MSShapeGroup"></path>
        </g>
    </g>
</svg>