<?xml version="1.0" encoding="UTF-8" standalone="no"?>
<svg width="404px" height="150px" viewBox="0 0 404 150" version="1.1" xmlns="http://www.w3.org/2000/svg" xmlns:xlink="http://www.w3.org/1999/xlink" xmlns:sketch="http://www.bohemiancoding.com/sketch/ns">
    <!-- Generator: Sketch 3.3.2 (12043) - http://www.bohemiancoding.com/sketch -->
    <title>Type</title>
    <desc>Created with Sketch.</desc>
    <defs></defs>
    <g id="Logo" stroke="none" stroke-width="1" fill="none" fill-rule="evenodd" sketch:type="MSPage">
        <g id="Artboard-6" sketch:type="MSArtboardGroup">
            <g id="Type" sketch:type="MSLayerGroup">
                <path d="M98.5365854,30.2602665 L98.5365854,0.895522388 L29.5036869,0.895522388 L0,0.895522388 L0,30.2602665 L0,75.5903085 L0,104.955053 L0,150 L29.5036869,150 L29.5036869,104.955053 L73.3295519,104.955053 L73.3295519,75.5903085 L29.5036869,75.5903085 L29.5036869,30.2602665 L98.5365854,30.2602665 Z M375.974059,0.447761194 L375.974059,89.2087274 C375.974059,107.47465 361.103151,122.315712 343.086475,122.315712 C324.783819,122.315712 309.912911,107.47465 309.912911,89.2087274 L309.912911,0.447761194 L282.172949,0.447761194 L282.172949,89.2087274 C282.172949,122.886522 309.340953,150 343.086475,150 C376.546017,150 404,122.886522 404,89.2087274 L404,0.447761194 L375.974059,0.447761194 Z" id="FOU" fill="#1A1A1A" sketch:type="MSShapeGroup"></path>
                <path d="M186.018849,0.447761194 C144.543733,0.447761194 111.077605,33.8401504 111.077605,75.2238806 C111.077605,116.322206 144.543733,150 186.018849,150 C227.20793,150 260.674058,116.322206 260.674058,75.2238806 C260.674058,33.8401504 227.20793,0.447761194 186.018849,0.447761194 Z M186.01889,123.134328 C159.410001,123.134328 137.95122,101.718205 137.95122,75.4477612 C137.95122,48.8917687 159.410001,27.761194 186.01889,27.761194 C212.341662,27.761194 233.800443,48.8917687 233.800443,75.4477612 C233.800443,101.718205 212.341662,123.134328 186.01889,123.134328 Z" id="Path" fill="#BFA94E" sketch:type="MSShapeGroup"></path>
            </g>
        </g>
    </g>
</svg>